<?xml version="1.0" encoding="iso-8859-1"?>
<!-- Generator: Adobe Illustrator 19.0.0, SVG Export Plug-In . SVG Version: 6.00 Build 0)  -->
<svg version="1.1" id="Capa_1" xmlns="http://www.w3.org/2000/svg" xmlns:xlink="http://www.w3.org/1999/xlink" x="0px" y="0px"
	 viewBox="0 0 512.004 512.004" style="enable-background:new 0 0 512.004 512.004;" xml:space="preserve">
<g>
	<path style="fill:#B0D3F0;" d="M512.004,256.007c0,4.414-0.088,8.828-0.353,13.153c-0.177,3.795-0.441,7.592-0.883,11.388
		c0,1.147-0.177,2.295-0.265,3.353c-0.353,3.267-0.794,6.532-1.236,9.8c-0.265,1.323-0.441,2.648-0.618,3.884
		c-0.53,3.354-1.148,6.709-1.854,10.063c-0.441,2.119-0.883,4.326-1.501,6.444c-0.706,3.178-1.501,6.268-2.295,9.358
		c-0.177,0.551-0.325,1.11-0.441,1.677c-1.148,4.061-2.383,8.034-3.708,11.917c-1.324,4.061-2.825,8.033-4.326,12.006
		c-0.177,0.441-0.353,0.794-0.53,1.235c-1.412,3.796-3.001,7.504-4.679,11.123l-0.265,0.53
		c-44.914,98.801-147.248,158.543-255.366,149.079S35.169,424.94,8.104,319.839S23.19,103.991,113.289,43.483
		s208.56-57.625,295.609,7.194c0.441,0.353,0.794,0.619,1.236,0.971c2.383,1.678,4.679,3.531,6.974,5.385
		c1.059,0.884,2.207,1.766,3.266,2.737c1.854,1.5,3.708,3.09,5.473,4.767c1.677,1.412,3.354,2.913,4.943,4.414
		c1.942,1.854,3.884,3.707,5.738,5.56c1.148,1.06,2.207,2.207,3.354,3.356c4.061,4.149,7.945,8.563,11.741,12.977
		c1.148,1.412,2.295,2.736,3.443,4.149c0.296,0.433,0.62,0.845,0.971,1.235c1.501,1.766,2.913,3.621,4.237,5.474
		c0.353,0.441,0.618,0.794,0.883,1.147c1.942,2.56,3.884,5.209,5.65,7.858c0.706,1.058,1.501,2.119,2.207,3.265
		c1.324,2.031,2.648,4.061,3.972,6.18c1.324,2.03,2.56,4.149,3.796,6.268c2.295,3.795,4.502,7.767,6.532,11.739v0.088
		c1.236,2.207,2.383,4.502,3.443,6.797c0.177,0.265,0.265,0.619,0.441,0.884c1.677,3.442,3.266,6.886,4.679,10.416
		c1.413,3.266,2.737,6.621,3.972,10.063c0.435,0.979,0.818,1.981,1.148,3.001c0.971,2.737,1.942,5.474,2.737,8.21
		c0.53,1.501,0.971,3.001,1.501,4.59c0.794,2.648,1.589,5.385,2.207,8.033c1.501,5.384,2.737,10.946,3.796,16.506
		c0.53,2.295,0.883,4.59,1.236,6.885c0.265,1.236,0.441,2.472,0.618,3.708c0.177,0.971,0.265,1.854,0.441,2.824
		c0.353,2.737,0.706,5.563,0.971,8.298c0.088,0.794,0.177,1.501,0.265,2.295c0.441,3.972,0.706,8.033,0.883,12.094v0.441
		C511.915,247.532,512.004,251.77,512.004,256.007z"/>
	<path style="fill:#E4C05C;" d="M273.659,194.214v167.724H88.279V317.8c0.013-68.25,55.337-123.574,123.586-123.586H273.659z"/>
	<path style="fill:#F3D55B;" d="M512.004,256.007c0,4.414-0.088,8.828-0.353,13.153c-0.177,3.795-0.441,7.592-0.883,11.388
		c0,1.147-0.177,2.295-0.265,3.353c-0.353,3.267-0.794,6.532-1.236,9.8c-0.265,1.323-0.441,2.648-0.618,3.884
		c-0.53,3.354-1.148,6.709-1.854,10.063c-0.441,2.119-0.883,4.326-1.501,6.444c-0.706,3.178-1.501,6.268-2.295,9.358
		c-0.177,0.551-0.325,1.11-0.441,1.677c-1.148,4.061-2.383,8.034-3.708,11.917c-1.324,4.061-2.825,8.033-4.326,12.006
		c-0.177,0.441-0.353,0.794-0.53,1.235c-1.412,3.796-3.001,7.504-4.679,11.123l-0.265,0.53H273.659V194.214h13.506
		c2.03,0,3.972-0.088,5.915-0.265c12.79-0.773,25.245-4.392,36.458-10.593c5.164-2.771,10.018-6.085,14.477-9.888
		c8.633-7.229,15.77-16.075,21.01-26.041c0.971-1.765,1.854-3.531,2.648-5.297l5.914-13.241l13.153-29.042l8.386-18.539
		l13.771-30.632c0.441,0.353,0.794,0.619,1.236,0.971c2.383,1.678,4.679,3.531,6.974,5.385c1.059,0.884,2.207,1.766,3.266,2.737
		c1.854,1.5,3.708,3.09,5.473,4.767c1.677,1.412,3.354,2.913,4.943,4.414c1.942,1.854,3.884,3.707,5.738,5.56
		c1.148,1.06,2.207,2.207,3.354,3.356c4.061,4.149,7.945,8.563,11.741,12.977c1.148,1.412,2.295,2.736,3.443,4.149
		c0.296,0.433,0.62,0.845,0.971,1.235c1.412,1.766,2.825,3.621,4.237,5.386v0.088c0.353,0.441,0.618,0.794,0.883,1.147
		c1.942,2.56,3.884,5.209,5.65,7.858c0.706,1.058,1.501,2.119,2.207,3.265c1.324,2.031,2.648,4.061,3.972,6.18
		c1.324,2.03,2.56,4.149,3.796,6.268c2.295,3.795,4.502,7.767,6.532,11.739v0.088c1.236,2.207,2.383,4.502,3.443,6.797
		c0.177,0.265,0.265,0.619,0.441,0.884c1.677,3.442,3.266,6.886,4.679,10.416c1.413,3.266,2.737,6.621,3.972,10.063
		c0.435,0.979,0.818,1.981,1.148,3.001c0.971,2.737,1.942,5.474,2.737,8.21c0.53,1.501,0.971,3.001,1.501,4.59
		c0.794,2.648,1.589,5.385,2.207,8.033c1.501,5.384,2.737,10.946,3.796,16.506c0.53,2.295,0.883,4.59,1.236,6.886
		c0.265,1.236,0.441,2.472,0.618,3.708c0.177,0.971,0.265,1.854,0.441,2.824c0.353,2.737,0.706,5.563,0.971,8.298
		c0.088,0.794,0.177,1.501,0.265,2.295c0.441,3.972,0.706,8.033,0.883,12.094v0.441C511.915,247.532,512.004,251.77,512.004,256.007
		z"/>
	<path style="fill:#F9EAB0;" d="M489.052,361.938c-6.982,15.577-15.593,30.372-25.688,44.138H105.935
		c-4.598,0.03-9.017-1.783-12.27-5.032c-0.441-0.441-0.883-0.883-1.324-1.412c-2.627-3.145-4.065-7.113-4.061-11.211v-26.483
		H489.052z"/>
	<path style="fill:#95A5A5;" d="M238.348,194.214v97.103c0.009,7.027-2.778,13.768-7.746,18.736
		c-4.968,4.969-11.71,7.756-18.736,7.746H88.279c0.013-68.25,55.337-123.574,123.586-123.586H238.348z"/>
	<g>
		<path style="fill:#CBB292;" d="M141.245,397.248v8.828H123.59v-8.828c0-4.875,3.952-8.828,8.828-8.828
			C137.293,388.421,141.245,392.373,141.245,397.248z"/>
		<path style="fill:#CBB292;" d="M176.555,397.248v8.828H158.9v-8.828c0-4.875,3.952-8.828,8.828-8.828
			C172.603,388.421,176.555,392.373,176.555,397.248z"/>
		<path style="fill:#CBB292;" d="M211.866,397.248v8.828h-17.655v-8.828c0-4.875,3.952-8.828,8.828-8.828
			S211.866,392.373,211.866,397.248z"/>
		<path style="fill:#CBB292;" d="M247.176,397.248v8.828h-17.655v-8.828c0-4.875,3.952-8.828,8.828-8.828
			S247.176,392.373,247.176,397.248z"/>
		<path style="fill:#CBB292;" d="M282.486,397.248v8.828h-17.655v-8.828c0-4.875,3.952-8.828,8.828-8.828
			S282.486,392.373,282.486,397.248z"/>
		<path style="fill:#CBB292;" d="M317.797,397.248v8.828h-17.655v-8.828c0-4.875,3.952-8.828,8.828-8.828
			S317.797,392.373,317.797,397.248z"/>
		<path style="fill:#CBB292;" d="M353.107,397.248v8.828h-17.655v-8.828c0-4.875,3.952-8.828,8.828-8.828
			S353.107,392.373,353.107,397.248z"/>
		<path style="fill:#CBB292;" d="M388.417,397.248v8.828h-17.655v-8.828c0-4.875,3.952-8.828,8.828-8.828
			C384.465,388.421,388.417,392.373,388.417,397.248z"/>
		<path style="fill:#CBB292;" d="M423.728,397.248v8.828h-17.655v-8.828c0-4.875,3.952-8.828,8.828-8.828
			S423.728,392.373,423.728,397.248z"/>
		<path style="fill:#CBB292;" d="M459.038,397.248v8.828h-17.655v-8.828c0-4.875,3.952-8.828,8.828-8.828
			S459.038,392.373,459.038,397.248z"/>
	</g>
	<g>
		<path style="fill:#B19046;" d="M354.166,279.399c-5.754,2.222-11.653,4.051-17.655,5.474l-12.977-18.008l-49.876-69.914v-2.737
			h13.506c2.03,0,3.972-0.088,5.915-0.265l39.194,54.819L354.166,279.399z"/>
		<path style="fill:#B19046;" d="M401.747,254.241c-4.767,3.442-9.71,6.621-14.742,9.622l-21.01-29.396l-36.458-51.112
			c5.164-2.771,10.018-6.085,14.477-9.888l36.811,51.554L401.747,254.241z"/>
		<path style="fill:#B19046;" d="M438.293,220.255c-3.835,4.671-7.932,9.122-12.27,13.33l-21.098-29.837l-39.901-56.32
			c0.971-1.765,1.854-3.531,2.648-5.297l5.914-13.241l43.079,60.734L438.293,220.255z"/>
		<path style="fill:#B19046;" d="M465.394,177.882v0.088c-2.72,5.958-5.816,11.737-9.269,17.303l-23.481-32.309L386.74,99.848
			l8.386-18.539l45.903,63.117L465.394,177.882z"/>
	</g>
	<path style="fill:#E4C05C;" d="M483.314,138.158v0.088l-16.331,36.282c-0.53,1.147-1.059,2.295-1.589,3.353v0.088
		c-2.72,5.958-5.816,11.738-9.269,17.303c-5.244,8.805-11.209,17.161-17.832,24.982c-3.835,4.671-7.932,9.122-12.27,13.33
		c-7.488,7.566-15.609,14.476-24.276,20.657c-4.767,3.442-9.71,6.621-14.742,9.622c-10.463,6.143-21.453,11.342-32.839,15.536
		c-9.711,4.159-20.02,6.752-30.543,7.681l-0.088-20.215v-15.801h0.088c2.913-0.706,5.826-1.5,8.651-2.295
		c11.731-3.514,23.04-8.31,33.721-14.3c14.499-8.148,27.634-18.514,38.93-30.721c4.222-4.443,8.144-9.161,11.741-14.124
		c6.19-8.339,11.542-17.269,15.978-26.659c0.53-1.059,1.059-2.119,1.501-3.178l6.885-15.36l19.244-42.726
		c0.353,0.441,0.618,0.794,0.883,1.147c1.942,2.56,3.884,5.209,5.65,7.858c0.706,1.058,1.501,2.119,2.207,3.265
		c1.324,2.031,2.648,4.061,3.972,6.18c1.324,2.03,2.56,4.149,3.796,6.268C479.077,130.214,481.284,134.186,483.314,138.158z"/>
</g>
<g>
</g>
<g>
</g>
<g>
</g>
<g>
</g>
<g>
</g>
<g>
</g>
<g>
</g>
<g>
</g>
<g>
</g>
<g>
</g>
<g>
</g>
<g>
</g>
<g>
</g>
<g>
</g>
<g>
</g>
</svg>
