<svg id="Layer_1" enable-background="new 0 0 512 512" height="512" viewBox="0 0 512 512" width="512" xmlns="http://www.w3.org/2000/svg"><g><path d="m84.316 441.762c12.716 12.493 26.788 23.607 41.977 33.105h259.415c15.189-9.498 29.26-20.611 41.976-33.104l41.182-53.393c20.444-35.782 32.134-77.21 32.134-121.37 0-135.31-109.69-245-245-245s-245 109.69-245 245c0 44.161 11.69 85.589 32.134 121.369z" fill="#dd544f"/><path d="m347.014 115.309c-37.835 6.006-72.171 24.194-76.297 26.434v-.959c0-3.383-1.154-6.497-3.081-8.984l-11.636 7.257-11.636-7.257c-1.927 2.487-3.081 5.6-3.081 8.984v.959c-4.126-2.24-38.462-20.428-76.297-26.434-5.591-.888-10.393-3.51-14.301-7.361-13.933 7.415-30.261 17.368-44.203 29.296 33.54 31.18 34.625 93.642 34.637 94.726h1.782s21.405 92.888 8.609 136.254c-6.723 22.783-12.395 43.981-17.19 63.474l47.299-24.202c1.973-1.009 4.08-1.488 6.157-1.488 4.934 0 9.701 2.699 12.099 7.385 3.406 6.658.761 14.848-5.899 18.256l-67.665 34.622c-.559 2.575-1.096 5.1-1.62 7.594 37.954 24.143 82.995 38.135 131.309 38.135s93.355-13.992 131.309-38.134c-.524-2.494-1.061-5.019-1.62-7.594l-67.665-34.622c-6.66-3.408-9.305-11.598-5.899-18.256 3.41-6.661 11.602-9.301 18.256-5.898l47.299 24.202c-4.795-19.492-10.467-40.691-17.19-63.474-12.797-43.366 8.608-136.254 8.608-136.254h1.781c.012-1.084 1.097-63.546 34.637-94.726-13.941-11.928-30.27-21.881-44.203-29.296-3.906 3.851-8.707 6.473-14.299 7.361z" fill="#ffd064"/><g fill="#ffc250"><path d="m142.9 231.971s21.405 92.888 8.609 136.254c-6.723 22.783-12.395 43.981-17.19 63.474l47.299-24.202c1.973-1.009 4.08-1.488 6.157-1.488 24.308-73.852 3.641-200.395-10.211-235.341s5.65-49.162 5.65-49.162l-4.535-3.492c-4.48-1.049-9.059-1.969-13.693-2.705-5.591-.888-10.393-3.51-14.301-7.361-13.933 7.415-30.261 17.368-44.203 29.296 33.54 31.18 34.625 93.642 34.637 94.726h1.781z"/><path d="m183.97 436.77-57.659 29.502c-.559 2.575-1.096 5.1-1.62 7.594 29.105 18.513 62.382 31.048 98.102 35.891-19.169-13.791-38.47-36.679-38.823-72.987z"/><path d="m256 181.139c-6.982 0-12.938-4.344-15.346-10.471v340.84c5.076.314 10.19.492 15.346.492s10.27-.178 15.346-.492v-340.84c-2.408 6.127-8.364 10.471-15.346 10.471z"/></g><path d="m256 51.271c-26.556 0-51.427 7.196-72.786 19.732 3.057 4.27 7.334 7.841 12.818 10.663 42.608 21.929 49.846 41.545 51.05 47.034l.484 2.207 2.033-.986c4.059-1.967 8.743-1.967 12.802 0l2.033.986.484-2.207c4.76-21.714 40.278-41.49 51.05-47.034 5.484-2.823 9.762-6.394 12.819-10.663-21.36-12.536-46.231-19.732-72.787-19.732z" fill="#407093"/><path d="m271.346 54.459c-16.021 16.021-19.257 33.591-19.532 44.071-.202 7.74-6.499 13.653-13.811 13.9 6.537 7.79 8.504 13.647 9.079 16.271l.483 2.207 2.033-.986c4.059-1.967 8.743-1.967 12.802 0l2.033.986.483-2.207c4.76-21.714 40.278-41.49 51.05-47.034 5.484-2.823 9.762-6.394 12.818-10.663-16.635-9.764-35.407-16.268-55.44-18.676-.628.712-1.29 1.423-1.998 2.131z" fill="#2b4d66"/><path d="m184.469 72.641c21.075-12.085 45.495-18.995 71.531-18.995s50.457 6.91 71.531 18.995c2.849-3.447 4.831-7.396 5.916-11.828 3.081-12.589-1.622-26.427-6.237-36.006l-8.348-10.972c-39.878-18.446-85.846-18.446-125.724 0l-4.625 3.98c-5.048 8.621-13.915 26.839-9.961 42.997 1.086 4.433 3.067 8.382 5.917 11.829z" fill="#fff5d7"/><path d="m318.862 13.835c-15.179-7.021-31.24-11.362-47.512-13.038.145.168 24.799 28.859-.004 53.662-.002.002-.004.004-.007.007 20.283 2.149 39.312 8.497 56.191 18.176 2.849-3.447 4.83-7.396 5.917-11.829 3.08-12.588-1.622-26.427-6.238-36.006z" fill="#ffe09f"/><path d="m180.807 405.911-45.923 23.497c-3.449 13.915-6.453 26.975-9.063 39.115l68.967-35.288c7.545-3.861 10.532-13.107 6.671-20.652s-13.107-10.532-20.652-6.672z" fill="#ffe07d"/><path d="m377.116 429.409-45.923-23.497c-7.545-3.861-16.792-.874-20.652 6.672-3.861 7.545-.874 16.792 6.671 20.652l68.967 35.288c-2.61-12.14-5.614-25.2-9.063-39.115z" fill="#ffe07d"/><path d="m318.862 13.835s33.355 47.172-3.71 66.248c-48.338 24.877-51.996 46.885-52.273 50.074 4.656 2.474 7.838 7.371 7.838 13.002v.959c4.126-2.24 38.462-20.428 76.297-26.434 37.403-5.938 39.778-89.056-28.152-103.849z" fill="#fff"/><path d="m330.77 121.007c-.002 0-.003-.001-.005-.001-34.234-5.691-28.009-34.045-28.008-34.048-36.594 21.945-39.626 40.307-39.877 43.198 4.656 2.474 7.838 7.371 7.838 13.002v.959c3.523-1.913 29.092-15.456 60.052-23.11z" fill="#fff5d7"/><path d="m241.283 143.158c0-5.631 3.181-10.528 7.838-13.002-.277-3.189-3.935-25.196-52.273-50.074-37.065-19.076-3.71-66.248-3.71-66.248-67.93 14.794-65.555 97.912-28.152 103.849 37.835 6.006 72.171 24.194 76.297 26.434z" fill="#fff"/><path d="m241.283 143.158c0-5.631 3.181-10.528 7.838-13.002-.251-2.891-3.283-21.253-39.877-43.198 0 32.01-26.029 34.548-26.029 34.548 30.062 7.729 54.62 20.739 58.068 22.611z" fill="#fff5d7"/><path d="m256 126.659c-9.112 0-16.499 7.387-16.499 16.498v25.045c0 9.112 7.387 16.498 16.499 16.498s16.499-7.387 16.499-16.498v-25.045c0-9.111-7.387-16.498-16.499-16.498z" fill="#f5ebcd"/><path d="m256 162.81c-9.112 0-16.499-7.386-16.499-16.498v21.891c0 9.112 7.387 16.498 16.499 16.498s16.499-7.387 16.499-16.498v-21.891c0 9.112-7.387 16.498-16.499 16.498z" fill="#ffe07d"/><path d="m107.871 136.068c-3.418 2.861-6.707 5.838-9.795 8.926-23.629 23.629-37.119 133.662-42.444 187.982-1.522 15.529-5.496 30.704-11.674 45.032-.957 2.219-1.909 4.465-2.855 6.728 12.272 22.352 27.925 42.583 46.278 60 4.562-9.739 8.473-18.814 11.582-26.36 4.256-10.333 7.745-20.952 10.867-31.683 1.37-4.711 2.958-9.358 4.745-13.936 22.728-58.214 28.326-140.786 28.326-140.786s-.541-63.774-35.03-95.903z" fill="#ffd064"/><path d="m468.042 378.007c-6.178-14.328-10.152-29.503-11.674-45.032-5.325-54.32-18.815-164.353-42.444-187.982-3.088-3.088-6.376-6.064-9.795-8.926-34.489 32.13-35.03 95.903-35.03 95.903s5.599 82.572 28.326 140.786c1.787 4.578 3.375 9.225 4.745 13.936 3.121 10.731 6.61 21.35 10.867 31.683 3.108 7.546 7.019 16.621 11.581 26.36 18.353-17.417 34.006-37.648 46.278-60-.945-2.263-1.897-4.509-2.854-6.728z" fill="#ffe07d"/><path d="m127.832 329.347c-50.418 28.399-69.783-19.373-69.783-19.373-.939 8.366-1.743 16.131-2.417 23.001-1.522 15.529-5.496 30.704-11.674 45.032-.957 2.219-1.909 4.465-2.855 6.728 12.272 22.352 27.925 42.583 46.278 60 4.562-9.739 8.473-18.814 11.582-26.36 4.256-10.333 7.745-20.952 10.867-31.683 1.37-4.711 2.958-9.358 4.745-13.936 5.307-13.594 9.68-28.516 13.266-43.405z" fill="#ffc250"/><path d="m468.042 378.007c-6.178-14.328-10.152-29.503-11.674-45.032-.673-6.871-1.478-14.635-2.417-23.001-23.799 55.026-69.107 22.183-69.107 22.183 3.454 13.952 7.607 27.859 12.581 40.599 1.787 4.578 3.375 9.225 4.745 13.936 3.121 10.731 6.61 21.35 10.867 31.683 3.108 7.546 7.019 16.621 11.581 26.36 18.353-17.417 34.006-37.648 46.278-60-.945-2.263-1.897-4.509-2.854-6.728z" fill="#ffd064"/></g></svg>