<?xml version="1.0" encoding="iso-8859-1"?>
<!-- Generator: Adobe Illustrator 19.0.0, SVG Export Plug-In . SVG Version: 6.00 Build 0)  -->
<svg version="1.1" id="Capa_1" xmlns="http://www.w3.org/2000/svg" xmlns:xlink="http://www.w3.org/1999/xlink" x="0px" y="0px"
	 viewBox="0 0 512 512" style="enable-background:new 0 0 512 512;" xml:space="preserve">
<path style="fill:#FFCC4D;" d="M512,256c0,140.487-113.677,256-256,256C114.047,512,0,396.836,0,256C0,114.615,114.615,0,256,0
	C397.649,0,512,114.857,512,256z"/>
<path style="fill:#828282;" d="M481.135,35.15H30.866c-5.359,0-9.745-4.385-9.745-9.745l0,0c0-5.359,4.385-9.745,9.745-9.745
	h450.268c5.359,0,9.745,4.385,9.745,9.745l0,0C490.88,30.765,486.494,35.15,481.135,35.15z"/>
<path style="fill:#82AAF0;" d="M418.34,293.411l-41.014,28.056c-7.628,5.226-18.005,3.593-23.663-3.73l-21.945-28.393
	c-3.466-4.488-10.662-2.033-10.662,3.635v210.708C300.312,509.114,278.514,512,256,512C114.046,512,0,396.838,0,256
	c0-31.174,5.573-61.053,15.782-88.687h308.15c16.488,0,31.954,7.965,41.531,21.387l57.228,80.164
	C428.37,276.818,426.41,287.891,418.34,293.411z"/>
<path style="fill:#91B9FF;" d="M418.34,293.411l-41.014,28.056c-7.628,5.226-18.005,3.593-23.652-3.73l-21.956-28.393
	c-3.477-4.499-10.662-2.044-10.662,3.635v210.708C300.312,509.114,278.514,512,256,512c-31.933,0-62.454-5.826-90.583-16.467
	V325.776l77.435-158.463h81.081c16.488,0,31.964,7.965,41.541,21.387l57.218,80.164C428.37,276.818,426.41,287.891,418.34,293.411z"
	/>
<path style="fill:#FFEB99;" d="M71.009,123.67L38.294,242.363c-1.415,5.111,3.195,9.854,8.344,8.585l33.103-8.155
	c2.388-0.588,4.908,0.132,6.626,1.893l79.058,81.091L71.009,123.67z"/>
<path style="fill:#6E96DC;" d="M180.882,294.137l-15.466,31.638v5.573l-12.358,8.544c-4.183,2.887-9.83,2.339-13.38-1.296
	l-64.751-66.405l-21.735,5.352c-2.697,0.664-5.468,1.001-8.239,1.001c-10.63,0-20.839-5.068-27.297-13.559
	c-6.542-8.597-8.639-19.512-5.752-29.931l18.669-67.743h91.058L180.882,294.137z"/>
<path style="fill:#82AAF0;" d="M149.949,294.137l15.466,31.638v5.573l12.358,8.544c4.183,2.887,9.83,2.339,13.38-1.296
	l64.751-66.405l21.735,5.352c2.697,0.664,5.468,1.001,8.239,1.001c10.63,0,20.839-5.068,27.297-13.559
	c6.543-8.597,8.639-19.512,5.752-29.931l-18.669-67.743H209.2L149.949,294.137z"/>
<path style="fill:#415A87;" d="M258.975,130.638l-14.497,30.226l-79.058,164.911L86.363,160.854l-14.486-30.216
	c-3.508-7.301,1.823-15.761,9.924-15.761h167.25C257.153,114.877,262.484,123.337,258.975,130.638z"/>
<path style="fill:#AA6432;" d="M270.638,164.055c-1.254,1.148-2.918,1.844-4.751,1.844h-39.192c-1.812,0-3.466-0.695-4.73-1.823
	c-0.169-0.137-0.337-0.274-0.495-0.421l-51.917-40.864c-2.442-1.922-5.883-1.922-8.325,0l-51.907,40.853
	c-1.296,1.391-3.14,2.255-5.173,2.255H64.955c-1.96,0-3.73-0.801-5.015-2.086l3.287-11.905c0.548-0.147,1.127-0.221,1.728-0.221
	h34.862l55.191-43.678c1.613-1.277,2.554-3.221,2.554-5.277V78.162c0-9.208,5.952-17.426,14.813-20.449
	c1.907-0.653,3.719-1.57,5.373-2.739c6.142-4.288,9.672-11.61,9.208-19.111c-0.337-5.299-2.708-10.325-6.679-14.128
	c-3.719-3.582-8.502-5.721-13.496-6.037c-6.047-0.369-11.789,1.696-16.182,5.816c-4.38,4.117-6.79,9.688-6.806,15.694
	c-0.008,3.268-1.912,6.292-4.992,7.384c-5.507,1.954-10.664-2.09-10.664-7.327c0-10.24,4.277-20.133,11.747-27.15
	c7.575-7.122,17.468-10.683,27.866-10.04c3.34,0.211,6.627,0.864,9.777,1.949c14.286,4.91,24.116,17.815,25.043,32.87
	c0.053,0.78,0.074,1.549,0.074,2.318c0,15.845-10.103,30.163-25.211,35.325c-2.518,0.853-4.214,3.118-4.214,5.626v24.568
	c0,2.057,0.941,4,2.554,5.277l55.191,43.678h34.925c0.453,0,0.896,0.042,1.327,0.126L270.638,164.055z"/>
<path style="fill:#506EA0;" d="M71.009,123.67L38.294,242.363c-1.415,5.111,3.195,9.854,8.344,8.585l33.103-8.155
	c2.388-0.588,4.908,0.132,6.626,1.893l79.058,81.091L71.009,123.67z"/>
<g>
	<circle style="fill:#415A87;" cx="180.883" cy="374.534" r="10.049"/>
	<circle style="fill:#415A87;" cx="180.883" cy="423.524" r="10.049"/>
	<circle style="fill:#415A87;" cx="180.883" cy="472.513" r="10.049"/>
</g>
<path style="fill:#828282;" d="M165.092,15.655c-4.056,5.689-6.469,12.463-6.88,19.491H66.83c-5.363,0-9.745-4.383-9.745-9.745
	c0-2.676,1.096-5.11,2.866-6.88c1.759-1.77,4.193-2.866,6.88-2.866H165.092z"/>
<path style="fill:#965028;" d="M509.257,158.795L509.257,158.795c0,3.924-3.182,7.106-7.106,7.106h-25.9
	c-1.812,0-3.466-0.695-4.73-1.823c-0.169-0.137-0.337-0.274-0.495-0.421l-51.919-40.867c-2.444-1.917-5.889-1.917-8.323,0
	l-51.908,40.856c-1.296,1.391-3.14,2.255-5.173,2.255H327.43c-3.924,0-7.106-3.182-7.106-7.106l0,0c0-3.924,3.182-7.106,7.106-7.106
	h21.942l55.185-43.68c1.612-1.275,2.56-3.224,2.56-5.278V78.162c0-9.208,5.953-17.426,14.813-20.449
	c1.907-0.653,3.719-1.57,5.373-2.739c6.142-4.288,9.672-11.61,9.208-19.111c-0.337-5.299-2.708-10.325-6.679-14.128
	c-3.719-3.582-8.502-5.721-13.496-6.037c-6.047-0.369-11.789,1.696-16.182,5.816c-4.383,4.119-6.795,9.693-6.806,15.698
	c-0.011,3.266-1.917,6.29-4.994,7.385c-5.51,1.949-10.662-2.097-10.662-7.333c0-10.24,4.277-20.133,11.747-27.15
	c7.575-7.122,17.468-10.683,27.866-10.04c3.34,0.211,6.627,0.864,9.777,1.949c14.286,4.91,24.116,17.815,25.043,32.87
	c0.053,0.78,0.074,1.549,0.074,2.318c0,15.845-10.103,30.163-25.211,35.325c-2.518,0.853-4.214,3.118-4.214,5.626v24.569
	c0,2.054,0.938,4.003,2.55,5.278l55.195,43.68h21.633C506.075,151.689,509.257,154.871,509.257,158.795z"/>
<path style="fill:#828282;" d="M414.29,15.655c-4.056,5.689-6.469,12.463-6.88,19.491h-91.382c-5.363,0-9.745-4.383-9.745-9.745
	c0-2.676,1.096-5.11,2.866-6.88c1.759-1.77,4.193-2.866,6.88-2.866H414.29z"/>
<path style="fill:#AA6432;" d="M423.096,158.795L423.096,158.795c0,3.924-3.182,7.106-7.106,7.106h-28.008
	c-1.812,0-3.466-0.695-4.73-1.823c-0.169-0.137-0.337-0.274-0.495-0.421l-51.919-40.867c-2.444-1.917-5.889-1.917-8.323,0
	l-51.908,40.856c-1.296,1.391-3.14,2.255-5.173,2.255h-18.316c-3.924,0-7.106-3.182-7.106-7.106l0,0
	c0-3.924,3.182-7.106,7.106-7.106h13.986l55.184-43.68c1.612-1.275,2.56-3.224,2.56-5.278V78.162
	c0-9.208,5.952-17.426,14.813-20.449c1.907-0.653,3.719-1.57,5.373-2.739c6.142-4.288,9.672-11.61,9.208-19.111
	c-0.337-5.299-2.708-10.325-6.679-14.128c-3.719-3.582-8.502-5.721-13.496-6.037c-6.047-0.369-11.789,1.696-16.182,5.816
	c-4.383,4.119-6.795,9.693-6.806,15.698c-0.011,3.266-1.917,6.29-4.994,7.385c-5.51,1.949-10.662-2.097-10.662-7.333
	c0-10.24,4.277-20.133,11.747-27.15c7.575-7.122,17.468-10.683,27.866-10.04c3.34,0.211,6.627,0.864,9.777,1.949
	c14.286,4.91,24.116,17.815,25.043,32.87c0.053,0.78,0.074,1.549,0.074,2.318c0,15.845-10.103,30.163-25.211,35.325
	c-2.518,0.853-4.214,3.118-4.214,5.626v24.569c0,2.054,0.938,4.003,2.55,5.278l55.195,43.68h23.742
	C419.915,151.689,423.096,154.871,423.096,158.795z"/>
<path style="fill:#828282;" d="M326.376,15.655c-4.056,5.689-6.469,12.463-6.88,19.491h-91.382c-5.363,0-9.745-4.383-9.745-9.745
	c0-2.676,1.096-5.11,2.866-6.88c1.759-1.77,4.193-2.866,6.88-2.866H326.376z"/>
<path style="fill:#506EA0;" d="M260.059,126.305l-94.594,199.471l79.058-81.091c1.717-1.76,4.237-2.481,6.626-1.893l33.103,8.155
	c5.149,1.268,9.759-3.475,8.344-8.585L260.059,126.305z"/>
<g>
</g>
<g>
</g>
<g>
</g>
<g>
</g>
<g>
</g>
<g>
</g>
<g>
</g>
<g>
</g>
<g>
</g>
<g>
</g>
<g>
</g>
<g>
</g>
<g>
</g>
<g>
</g>
<g>
</g>
</svg>
