<svg id="Layer_1" enable-background="new 0 0 512 512" height="512" viewBox="0 0 512 512" width="512" xmlns="http://www.w3.org/2000/svg"><path d="m65.269 420.76 381.649-.233c33.823-42.007 54.08-95.396 54.08-153.525 0-135.309-109.69-244.999-244.999-244.999s-244.998 109.689-244.998 244.998c0 58.237 20.333 111.717 54.268 153.759z" fill="#ff4155"/><path d="m179.355 136.61h.4c.572-5.397 2.174-11.136 5.711-16.684 2.388-3.747 3.521-8.272 3.192-12.742-2.236-30.437 8.585-40.001 15.234-42.992 5.302-2.387 11.081-3.303 16.83-3.303 8.622 0 17.178 2.062 23.95 4.314 7.165 2.383 15.055 2.383 22.216 0 11.285-3.754 27.522-6.975 40.78-1.012 15.462 6.958 16.186 29.857 15.241 42.887-.329 4.548.802 9.109 3.185 12.847 3.541 5.556 5.142 11.292 5.714 16.684h1.081c2.02-1.316 5.689-2.49 9.082-2.361 3.276-28.797 5.458-75.569-13.211-85.029-.667-.338-1.156-.935-1.388-1.646-2.154-6.595-15.544-39.242-71.593-47.573-56.049 8.331-69.439 40.978-71.591 47.573-.232.711-.721 1.308-1.389 1.646-18.68 9.466-16.484 56.289-13.205 85.081 3.574-.33 7.605.905 9.761 2.31z" fill="#4d4d79"/><path d="m184.188 47.573c-.232.711-.721 1.308-1.389 1.646-18.68 9.466-16.484 56.289-13.205 85.081 3.574-.331 7.605.904 9.761 2.309h.4c.572-5.397 2.174-11.136 5.71-16.684 2.388-3.747 3.521-8.272 3.192-12.742-2.236-30.437 8.585-40.001 15.234-42.992 5.302-2.387 11.081-3.302 16.83-3.302 8.224 0 16.369 1.879 22.982 4.007l.127-1.616s-5.938-22.187 1.313-35.687 10.636-27.593 10.636-27.593c-56.048 8.331-69.439 40.978-71.591 47.573z" fill="#41416b"/><path d="m445.912 404.481c.171-22.241-3.837-70.633-40.055-89.278l.006-.012c-7.218-3.44-43.833-19.588-63.363-25.769-5.456-1.727-10.688-4.033-15.662-6.809-2.035 10.793-7.343 27.477-21.144 43.907-25.771 30.677-74.087 30.526-99.641.001-14.915-17.816-19.708-35.498-21.271-43.579-4.795 2.626-9.824 4.823-15.06 6.48-18.655 5.903-55.265 21.91-63.364 25.769l.006.012c-36.218 18.645-40.226 67.037-40.055 89.278.042 5.448-.297 10.889-1.037 16.279 11.678 14.467 24.955 27.589 39.584 39.072h23.696l.864 16.968c14.333 8.667 29.63 15.9 45.685 21.516v-.006l162.069-.093v.009c16.03-5.628 31.301-12.868 45.611-21.538l.742-16.854h23.626c14.707-11.544 28.049-24.745 39.772-39.305-.721-5.316-1.051-10.679-1.009-16.048z" fill="#fff5ee"/><path d="m130.483 390.01c0-26.546 60.057-51.085 77.315-54.092 1.872-.326 3.543-1.342 4.654-2.819-2.253-2.014-4.403-4.192-6.4-6.577-14.915-17.816-19.708-35.498-21.271-43.579-4.795 2.626-9.824 4.823-15.06 6.48-18.655 5.903-55.265 21.91-63.364 25.769l.006.012c-36.218 18.645-40.226 67.037-40.055 89.278.042 5.448-.297 10.889-1.037 16.279 11.678 14.467 24.955 27.589 39.584 39.072h23.696l.864 16.968c.355.215.714.422 1.07.635-.002-31.309-.002-67.298-.002-87.426z" fill="#fce6d6"/><path d="m206.052 328.621c25.555 30.525 73.871 30.676 99.641-.001 14.627-17.412 19.718-35.118 21.479-45.786-4.385-2.414-8.568-5.199-12.485-8.352l-5.022-4.042-107.747.197-3.222 2.722c-4.426 3.74-9.204 7.021-14.255 9.806 1.149 6.904 5.412 26.106 21.611 45.456z" fill="#46d8fc"/><path d="m198.697 273.36c-4.426 3.74-9.204 7.021-14.255 9.806 1.148 6.903 5.411 26.105 21.61 45.455 1.679 2.005 3.46 3.871 5.323 5.614.896-.764 1.612-1.737 2.036-2.875 5.58-14.974 25.077-10.476 25.077-10.476l-9.644-39.951-11.58-10.324-15.345.028z" fill="#23c5ed"/><path d="m304.034 240.983c-13.089 15.246-27.996 25.632-48.254 25.632-20.255 0-35.163-10.384-48.254-25.633-.302 8.776-1.593 20.21-5.632 29.458l.025.196c.154.348 1.484 18.16 16.531 36.134 19.183 22.914 55.454 23.028 74.799-.001 11.93-14.201 15.412-28.668 16.416-36.33-4.039-9.247-5.329-20.68-5.631-29.456z" fill="#fcad6d"/><path d="m255.793 266.616c-.004 0-.009 0-.013 0-20.255 0-35.163-10.384-48.254-25.633-.302 8.776-1.593 20.21-5.632 29.458l.024.196c.154.348 1.484 18.16 16.531 36.134 5.53 6.605 12.483 11.304 20.038 14.112 12.973-18.421 16.405-42.198 17.306-54.267z" fill="#fd995b"/><path d="m409 458.344h-23.501c-2.199 0-3.982 1.783-3.982 3.982v15.106c9.608-5.743 18.786-12.126 27.483-19.088z" fill="#46d8fc"/><path d="m126.501 458.344h-23.501c8.696 6.963 17.875 13.345 27.482 19.088v-15.106c.001-2.2-1.782-3.982-3.981-3.982z" fill="#23c5ed"/><path d="m256.109 368.15c-49.791 0-90.3 40.508-90.3 90.3 0 14.299 3.346 27.83 9.289 39.859 25.329 8.859 52.549 13.691 80.902 13.691 28.452 0 55.763-4.866 81.167-13.784 5.914-12.005 9.242-25.503 9.242-39.766 0-49.792-40.508-90.3-90.3-90.3z" fill="#66e9ff"/><path d="m291.781 503.346c-.356-1.733-1.756-3.072-3.495-3.398-15.191-2.852-19.854-15.919-21.191-21.733-.376-1.636-1.644-2.927-3.284-3.286-13.991-3.056-17.058-13.918-17.726-18.872-.207-1.536-1.199-2.842-2.621-3.459-19.312-8.368-20.246-27.139-19.7-35.107.135-1.973-1.069-3.813-2.95-4.421-6.404-2.07-7.156-7.089-6.787-10.644.219-2.103-1.051-4.05-3.066-4.69-6.691-2.127-7.402-7.071-7.057-10.326.086-.81-.081-1.594-.424-2.292-22.796 16.407-37.67 43.164-37.67 73.332 0 14.3 3.346 27.83 9.289 39.859 25.328 8.859 52.549 13.691 80.901 13.691 12.91 0 25.581-1.012 37.95-2.94-1.199-2.052-1.84-4.114-2.169-5.714z" fill="#46d8fc"/><path d="m256.108 385.734c-40.096 0-72.716 32.621-72.716 72.716 0 12.859 3.369 24.94 9.25 35.432.089.182.175.366.279.544.074.128.164.239.243.362 2.269 3.915 4.898 7.597 7.831 11.009 17.682 4.056 36.093 6.203 55.005 6.203 19.007 0 37.508-2.165 55.272-6.261 2.9-3.38 5.502-7.023 7.751-10.896.091-.139.193-.268.278-.414.118-.203.218-.412.318-.62 5.855-10.475 9.208-22.53 9.208-35.359-.001-40.096-32.622-72.716-72.719-72.716z" fill="#46d8fc"/><path d="m291.781 503.346c-.356-1.733-1.756-3.072-3.495-3.398-15.191-2.852-19.854-15.919-21.191-21.733-.376-1.636-1.644-2.927-3.284-3.286-13.991-3.056-17.058-13.918-17.726-18.872-.207-1.536-1.199-2.842-2.621-3.459-19.312-8.368-20.246-27.139-19.7-35.107.135-1.973-1.069-3.813-2.95-4.421-6.404-2.07-7.156-7.089-6.787-10.644.104-1.003-.138-1.965-.63-2.773-18.166 13.233-30.004 34.653-30.004 58.797 0 12.859 3.369 24.94 9.25 35.432.09.182.176.366.279.544.074.128.164.239.243.362 2.269 3.915 4.898 7.597 7.831 11.009 17.681 4.056 36.092 6.203 55.004 6.203 12.909 0 25.577-1.022 37.947-2.946-1.197-2.05-1.837-4.11-2.166-5.708z" fill="#23c5ed"/><path d="m247.208 509.373c0 1.674-1.555 2.931-3.187 2.563-11.188-2.523-21.089-8.469-28.547-16.678-1.119-1.232-.799-3.19.642-4.022l27.168-15.686c1.744-1.007 3.924.252 3.924 2.266z" fill="#05a6cc"/><path d="m247.208 451.296c0 .935-.499 1.798-1.308 2.266l-38.551 22.258c-1.452.839-3.326.12-3.812-1.486-1.523-5.03-2.344-10.362-2.344-15.883 0-26.13 18.347-48.046 42.834-53.565 1.63-.367 3.181.891 3.181 2.563z" fill="#23c5ed"/><path d="m201.194 458.45c0 5.521.82 10.853 2.344 15.883.486 1.605 2.36 2.324 3.812 1.486l37.861-21.859c-.45-.585-1.045-1.058-1.746-1.362-19.312-8.368-20.246-27.139-19.7-35.107.07-1.02-.224-2.001-.779-2.798-13.23 10.033-21.792 25.91-21.792 43.757z" fill="#05a6cc"/><path d="m296.744 495.257c-7.458 8.209-17.361 14.155-28.548 16.678-1.633.368-3.188-.889-3.188-2.563v-31.558c0-2.014 2.18-3.273 3.924-2.266l27.169 15.686c1.442.833 1.762 2.792.643 4.023z" fill="#23c5ed"/><path d="m288.286 499.948c-15.191-2.852-19.854-15.919-21.191-21.733-.203-.884-.673-1.661-1.316-2.251-.467.462-.769 1.104-.769 1.852v31.558c0 1.674 1.555 2.931 3.188 2.563 8.316-1.876 15.921-5.646 22.341-10.828-.611-.587-1.39-.999-2.253-1.161z" fill="#05a6cc"/><path d="m308.681 474.333c-.486 1.605-2.36 2.324-3.812 1.486l-38.551-22.258c-.809-.467-1.308-1.331-1.308-2.266v-43.848c0-1.671 1.551-2.93 3.181-2.563 24.487 5.519 42.835 27.435 42.835 53.565-.001 5.522-.822 10.854-2.345 15.884z" fill="#23c5ed"/><path d="m347.432 134.097c-3.775-3.459-11.293-1.706-14.544.412.712 4.435.753 8.972.138 13.453l-3.837 27.941c0 2.252-.071 4.462-.201 6.633 9.354 2.822 14.001-5.577 14.784-11.34.337-2.481.888-4.926 1.652-7.312 2.488-7.772 11.465-21.12 2.008-29.787z" fill="#fcad6d"/><path d="m338.876 162.546c-2.843 0-5.45-1.008-7.485-2.685l-2.203 16.041c0 2.252-.071 4.462-.201 6.633 9.355 2.822 14.001-5.577 14.784-11.34.337-2.481.888-4.926 1.652-7.312.475-1.482 1.186-3.169 1.96-4.986-2.143 2.245-5.158 3.649-8.507 3.649z" fill="#fd995b"/><path d="m164.811 134.097c3.775-3.459 11.293-1.706 14.544.412-.712 4.435-.753 8.972-.137 13.453l3.836 27.941c0 2.252.071 4.462.201 6.633-9.355 2.822-14.001-5.577-14.784-11.34-.337-2.481-.888-4.926-1.652-7.312-2.488-7.772-11.465-21.12-2.008-29.787z" fill="#fcad6d"/><path d="m180.738 159.029c-2.136 2.169-5.103 3.517-8.388 3.517-2.58 0-4.958-.839-6.898-2.246.537 1.285 1.018 2.491 1.368 3.583.764 2.386 1.315 4.831 1.652 7.312.783 5.763 5.43 14.161 14.784 11.34-.13-2.171-.201-4.381-.201-6.633z" fill="#fd995b"/><path d="m330.799 125.873c-.953-2.488-2.09-4.773-3.377-6.794-2.202-3.454-3.246-7.676-2.942-11.887.974-13.441.168-37.086-16.167-44.437-13.72-6.172-30.371-2.889-41.923.953-6.842 2.277-14.379 2.276-21.221 0-11.553-3.843-28.204-7.128-41.923-.953-7.025 3.161-18.465 13.152-16.159 44.544.304 4.136-.743 8.319-2.949 11.781-1.251 1.962-2.36 4.176-3.295 6.579-2.74 7.039-3.627 14.85-2.564 22.591l3.831 27.864c0 46.146 27.92 72.807 39.924 82.129 9.581 7.441 21.565 11.54 33.746 11.54 12.18 0 24.165-4.098 33.746-11.54 12.004-9.321 39.923-35.983 39.917-82.046l3.837-27.941c1.052-7.663.194-15.404-2.481-22.383z" fill="#f9ba8f"/><path d="m263.692 258.242c-12.004-9.321-39.924-35.982-39.924-82.128l-3.831-27.864c-1.063-7.74-.176-15.551 2.564-22.59.935-2.403 2.044-4.617 3.295-6.579 2.205-3.461 3.253-7.645 2.949-11.781-2.192-29.843 8.036-40.339 15.086-44.019-11.477-3.646-27.382-6.468-40.586-.525-7.025 3.161-18.465 13.152-16.159 44.544.304 4.136-.743 8.319-2.949 11.781-1.251 1.962-2.36 4.176-3.295 6.579-2.74 7.039-3.627 14.85-2.564 22.59l3.831 27.864c0 46.146 27.92 72.807 39.924 82.128 9.581 7.442 21.565 11.54 33.746 11.54 7.162 0 14.251-1.427 20.829-4.107-4.608-1.879-8.968-4.367-12.916-7.433z" fill="#fcad6d"/><g fill="#ff7186"><path d="m370.081 50.148c8.342 32.438 13.732 83.559-1.11 154.248-23.299 110.967 82.881 23.029 125.527 118.838 4.244-18.057 6.501-36.88 6.501-56.233 0-94.113-53.075-175.817-130.918-216.853z"/><path d="m143.03 204.396c-14.843-70.69-9.453-121.81-1.11-154.248-77.843 41.036-130.919 122.74-130.919 216.853 0 19.353 2.258 38.175 6.501 56.232 42.647-95.808 148.827-7.871 125.528-118.837z"/></g></svg>