<svg id="Layer_1" enable-background="new 0 0 512 512" height="512" viewBox="0 0 512 512" width="512" xmlns="http://www.w3.org/2000/svg"><path d="m441.716 426.789c36.943-42.899 59.283-98.733 59.283-159.788 0-135.309-109.69-244.999-244.999-244.999s-244.999 109.69-244.999 244.999c0 61.055 22.339 116.889 59.283 159.788z" fill="#ff4155"/><path d="m429.794 352.659c-13.537-27.074-37.296-34.634-48.121-36.713-.116-.019-32.908-1.344-54.144-9.671-7.347 39.744-38.267 61.538-70.955 61.538h-.001c-32.479 0-64.123-22-70.95-62.021-5.72 2.203-9.992 3.297-9.992 3.297-22.509 6.421-45.328 6.857-45.328 6.857-10.825 2.079-34.584 9.639-48.121 36.713-6.063 12.126-9.887 41.066-12.042 73.961 9.989 11.621 21.053 22.288 33.031 31.862h25.689v17.987c18.79 11.429 39.241 20.396 60.903 26.465h132.451c21.975-6.158 42.705-15.295 61.719-26.961 0-7.531 0-13.324 0-15.629h-.024c0-.622 0-1.242 0-1.863h24.919c11.97-9.566 23.026-20.225 33.01-31.837-2.155-32.905-5.979-61.856-12.044-73.985z" fill="#fff5ee"/><path d="m185.624 305.791c-5.72 2.203-9.992 3.297-9.992 3.297-22.509 6.421-45.328 6.857-45.328 6.857-10.825 2.079-34.584 9.639-48.121 36.713-6.063 12.126-9.887 41.066-12.042 73.961 9.989 11.621 21.053 22.288 33.031 31.862h25.222c0-23.005 0-48.673 0-66.639 0-34.718 59.174-39.471 76.07-40.121 1.757-.068 3.38-.794 4.617-1.97-11.62-10.428-20.26-25.217-23.457-43.96z" fill="#fce6d6"/><path d="m185.304 305.913c.254 1.466.585 3.53 1.079 6.071 6.528 33.585 35.977 57.823 70.19 57.823 32.963 0 61.791-22.503 69.474-54.558.815-3.398 1.396-6.397 1.813-8.845-10.576-4.096-19.35-9.941-19.35-9.941l-103.98-.801c-5.945 4.613-13.383 8.022-19.226 10.251z" fill="#46d8fc"/><path d="m185.304 305.913c.253 1.466.585 3.53 1.079 6.071 2.977 15.314 10.729 28.673 21.516 38.689 1.068-.656 1.966-1.589 2.58-2.732 7.466-13.901 25.655-8.992 25.655-8.992l-23.651-43.226-7.953-.061c-5.945 4.613-13.383 8.021-19.226 10.251z" fill="#23c5ed"/><path d="m292.827 268.221c0-5.119 0-3.585 0-6.9-8.926 7.98-24.232 18.146-36.839 18.451-12.606-.305-27.913-10.472-36.838-18.451v6.9c0 11.84-5.887 20.741-14.62 27.44.205 1 .477 2.884.967 5.403 4.749 24.432 26.173 42.065 51.062 42.065 23.98 0 44.952-16.37 50.541-39.69.654-2.727 1.102-5.105 1.41-6.977-9.318-6.784-15.683-15.924-15.683-28.241z" fill="#fcad6d"/><path d="m236.134 338.949c15.002-20.699 18.904-44.788 19.789-59.18-12.594-.338-27.863-10.482-36.773-18.448v6.9c0 11.84-5.887 20.741-14.62 27.44.205 1 .477 2.884.967 5.403 3.374 17.358 15.168 31.275 30.637 37.885z" fill="#fd995b"/><path d="m410.067 457.484h-27.105c-1.63 0-2.952 1.322-2.952 2.952v17.887c10.55-6.205 20.594-13.176 30.057-20.839z" fill="#46d8fc"/><path d="m129.038 457.484h-27.105c9.463 7.663 19.506 14.634 30.057 20.839v-17.886c0-1.631-1.321-2.953-2.952-2.953z" fill="#23c5ed"/><path d="m335.468 250.923c-6.151-21.544-8.701-38.361-9.254-51.358-4.672 16.858-10.777 31.785-18.214 44.511-4.291 7.344-9.617 13.92-15.803 19.62-9.24 53.91 8.038 94.521 21.636 116.713 2.865 4.677 10.501 2.716 10.427-2.685-.61-44.692 27.77-68.792 11.208-126.801z" fill="#4d4d79"/><path d="m335.468 250.923c-6.151-21.544-8.701-38.361-9.254-51.358-4.672 16.858-10.777 31.785-18.214 44.511-4.291 7.344-9.617 13.92-15.803 19.62-2.337 13.633-2.973 26.412-2.406 38.261 22.99-31.672 49.933-1.842 49.933-1.842 1.8-13.936 1.328-29.636-4.256-49.192z" fill="#404066"/><path d="m256.582 34.996c13.975 0 25.831 2.69 35.81 6.834.282-1.822.43-3.689.43-5.59.001-20.015-16.225-36.24-36.24-36.24s-36.24 16.225-36.24 36.241c0 1.901.148 3.767.43 5.59 9.98-4.145 21.835-6.835 35.81-6.835z" fill="#4d4d79"/><path d="m256.582 27.318s-14.146-13.172 0-27.318c-20.015 0-36.24 16.225-36.24 36.241 0 1.901.148 3.767.43 5.59 9.98-4.144 21.835-6.834 35.81-6.834 0-.001-4.682-2.997 0-7.679z" fill="#404066"/><path d="m214.439 47.097c11.183-5.77 25.087-9.773 42.144-9.773 17.056 0 30.961 4.004 42.144 9.773 1.986 1.024 3.903 2.139 5.762 3.322-11.224-14.073-28.506-23.101-47.906-23.101s-36.682 9.028-47.906 23.101c1.859-1.183 3.776-2.298 5.762-3.322z" fill="#e1eaf9"/><path d="m208.676 50.419c1.859-1.183 3.777-2.298 5.762-3.322 10.516-5.426 23.442-9.288 39.13-9.729.95-.794 1.952-1.585 3.013-2.372 0 0-4.682-2.996 0-7.678-19.399 0-36.68 9.028-47.905 23.101z" fill="#c5def8"/><path d="m338.289 141.977v-32.443c0-27.059-15.084-52.136-39.563-64.765-11.183-5.769-25.087-9.773-42.144-9.773s-30.961 4.003-42.144 9.773c-24.479 12.629-39.563 37.706-39.563 64.765v32.161c3.631-.137 7.731 1.68 9.737 3.408.114.115.218.225.328.339.281.16.563.321.819.491 1.014-3.317 2.401-6.19 4.277-8.304 1.688-1.903 2.748-4.257 2.823-6.775.439-14.712 6.094-60.049 60.398-39.231 2.134.818 4.515.818 6.649 0 54.304-20.817 59.958 24.519 60.397 39.231.075 2.518 1.134 4.872 2.823 6.775 1.657 1.867 2.932 4.328 3.906 7.164 2.522-1.943 7.472-3.845 11.257-2.816z" fill="#4d4d79"/><path d="m174.875 109.534v32.161c3.631-.137 7.731 1.68 9.737 3.408.115.115.218.225.329.339.281.16.563.32.819.491 1.014-3.317 2.401-6.19 4.277-8.304 1.688-1.903 2.748-4.257 2.823-6.775.418-13.991 5.556-55.673 52.763-41.821l.073-.584s-22.317-28.827 10.887-53.453c-17.056 0-30.961 4.003-42.144 9.773-24.479 12.629-39.564 37.706-39.564 64.765z" fill="#404066"/><path d="m340.279 141.878c-3.99-2.778-10.844-.177-13.636 2.227-.16.16-.304.314-.457.472 4.379 16.038 1.59 40.984 1.122 43.971-.023.102-.048.202-.071.304 8.244.563 14.287-4.354 14.287-11.595 0-2.378.213-4.749.631-7.091 1.359-7.629 8.12-21.327-1.876-28.288z" fill="#fcad6d"/><path d="m335.918 166.593c-2.727 0-5.253-.846-7.341-2.285.25 11.659-.974 22.349-1.269 24.24-.023.102-.048.202-.071.304 8.244.563 14.287-4.354 14.287-11.595 0-2.378.213-4.749.631-7.091.318-1.787.934-3.91 1.56-6.198-2.171 1.64-4.866 2.625-7.797 2.625z" fill="#fd995b"/><path d="m185.845 188.612c-1.704-9.898-3.127-29.782.28-42.908-.469-.521-.964-1.051-1.512-1.599-2.792-2.404-9.646-5.005-13.636-2.227-9.996 6.961-3.235 20.659-1.876 28.287.418 2.342.63 4.713.63 7.091 0 7.766 6.946 12.864 16.107 11.391 0 0 .007-.019.008-.029z" fill="#fcad6d"/><path d="m184.054 164.405c-2.06 1.381-4.537 2.188-7.203 2.188-3.926 0-7.437-1.753-9.813-4.511.777 3.006 1.659 5.815 2.063 8.084.418 2.342.63 4.713.63 7.091 0 7.766 6.946 12.864 16.107 11.391 0 0 .007-.019.008-.029l-.002-.007c-.994-5.777-1.891-14.956-1.79-24.207z" fill="#fd995b"/><path d="m323.563 137.242c-1.682-1.896-2.608-4.112-2.676-6.406-.26-8.733-2.466-30.11-17.28-39.975-10.508-6.997-25.281-6.925-43.908.218-2.01.771-4.224.771-6.234 0-18.627-7.141-33.399-7.215-43.906-.219-14.815 9.865-17.02 31.243-17.281 39.976-.068 2.295-.994 4.51-2.677 6.406-9.277 10.454-7.245 40.995-5.081 53.569 4.793 21.156 11.736 39.603 20.633 54.831 9.032 15.458 22.711 27.481 39.558 34.769 7.546 3.263 16.197 3.264 23.742 0 16.846-7.289 30.525-19.311 39.558-34.769 8.896-15.223 15.839-33.671 20.642-54.868 2.079-13.218 4.293-42.958-5.09-53.532z" fill="#f9ba8f"/><path d="m268.062 280.411c-12.26-7.289-22.214-19.311-28.788-34.769-6.475-15.227-11.528-33.674-15.016-54.831-1.575-12.574-3.054-43.115 3.697-53.569 1.225-1.896 1.899-4.111 1.948-6.406.189-8.733 1.795-30.111 12.576-39.976 1.017-.93 2.09-1.731 3.215-2.411-15.002-4.381-27.136-3.581-36.137 2.411-14.815 9.865-17.02 31.243-17.281 39.976-.068 2.295-.993 4.51-2.677 6.406-9.277 10.454-7.245 40.995-5.081 53.569 4.793 21.156 11.736 39.603 20.633 54.831 9.032 15.458 22.711 27.481 39.558 34.769 7.471 3.231 16.024 3.258 23.515.091-.052-.032-.108-.058-.162-.091z" fill="#fcad6d"/><path d="m325.677 501.935c4.934-10.179 7.711-21.59 7.711-33.64 0-42.678-34.721-77.399-77.4-77.399-42.678 0-77.399 34.721-77.399 77.399 0 12.05 2.778 23.46 7.711 33.639 22.093 6.545 45.484 10.066 69.7 10.066 24.208 0 47.592-3.522 69.677-10.065z" fill="#66e9ff"/><path d="m287.58 509.974c-.498-1.161-.826-2.272-1.016-3.197-.306-1.485-1.505-2.633-2.996-2.913-13.021-2.445-17.018-13.645-18.164-18.628-.323-1.402-1.409-2.509-2.815-2.816-11.992-2.62-14.621-11.93-15.194-16.176-.178-1.316-1.028-2.436-2.246-2.965-16.553-7.172-17.354-23.262-16.885-30.091.116-1.691-.916-3.268-2.529-3.789-5.489-1.774-6.134-6.077-5.818-9.124.187-1.803-.901-3.471-2.628-4.02-5.735-1.823-6.344-6.061-6.049-8.851.074-.694-.07-1.366-.363-1.964-19.539 14.063-32.288 36.997-32.288 62.856 0 12.05 2.778 23.46 7.711 33.639 22.093 6.544 45.484 10.065 69.7 10.065 10.702 0 21.241-.694 31.58-2.026z" fill="#46d8fc"/><path d="m304.637 507.161c1.938-2.42 3.712-4.977 5.277-7.672.078-.12.166-.23.238-.355.101-.174.187-.353.272-.532 5.019-8.978 7.892-19.311 7.892-30.307 0-34.367-27.96-62.327-62.328-62.327-34.367 0-62.327 27.96-62.327 62.327 0 11.022 2.888 21.377 7.929 30.37.077.156.15.314.239.466.063.109.14.205.208.31 1.571 2.71 3.351 5.282 5.299 7.715 15.728 3.172 32 4.844 48.664 4.844 16.654 0 32.917-1.671 48.637-4.839z" fill="#46d8fc"/><path d="m287.58 509.974c-.498-1.161-.826-2.272-1.016-3.197-.306-1.485-1.505-2.633-2.996-2.913-13.021-2.445-17.018-13.645-18.164-18.628-.323-1.402-1.409-2.509-2.815-2.816-11.992-2.62-14.621-11.93-15.194-16.176-.178-1.316-1.028-2.436-2.246-2.965-16.553-7.172-17.354-23.262-16.885-30.091.116-1.691-.916-3.268-2.529-3.789-5.489-1.774-6.134-6.077-5.818-9.124.089-.86-.118-1.685-.54-2.376-15.57 11.342-25.717 29.702-25.717 50.397 0 11.022 2.888 21.377 7.928 30.37.077.156.15.314.239.466.063.109.14.205.208.31 1.571 2.71 3.351 5.282 5.299 7.715 15.73 3.171 32.002 4.843 48.666 4.843 10.702 0 21.241-.694 31.58-2.026z" fill="#23c5ed"/><path d="m244.995 482.952-23.287 13.445c-1.235.713-1.509 2.392-.55 3.447 4.383 4.824 9.751 8.736 15.784 11.416 3.782.291 7.588.498 11.417.616v-26.982c0-1.726-1.869-2.805-3.364-1.942z" fill="#05a6cc"/><path d="m248.359 462.163c0 .801-.427 1.541-1.121 1.942l-33.043 19.078c-1.245.719-2.851.102-3.267-1.274-1.306-4.311-2.009-8.882-2.009-13.614 0-22.397 15.726-41.181 36.714-45.912 1.397-.315 2.726.764 2.726 2.197z" fill="#23c5ed"/><path d="m208.918 468.296c0 4.732.703 9.302 2.009 13.614.417 1.376 2.022 1.992 3.267 1.274l32.452-18.736c-.385-.501-.896-.907-1.497-1.167-16.553-7.172-17.354-23.262-16.885-30.091.06-.874-.192-1.715-.668-2.398-11.338 8.597-18.678 22.206-18.678 37.504z" fill="#05a6cc"/><path d="m275.03 511.263c6.034-2.68 11.404-6.593 15.788-11.418.959-1.056.685-2.734-.55-3.447l-23.288-13.445c-1.495-.863-3.363.216-3.363 1.942v26.982c3.827-.118 7.632-.324 11.413-.614z" fill="#23c5ed"/><path d="m274.976 511.267c3.793-1.681 7.333-3.833 10.522-6.408-.523-.502-1.19-.855-1.93-.994-13.021-2.445-17.018-13.645-18.164-18.628-.174-.758-.577-1.424-1.128-1.93-.4.396-.659.946-.659 1.587v26.982c3.809-.116 7.595-.321 11.359-.609z" fill="#05a6cc"/><path d="m301.049 481.91c-.417 1.376-2.023 1.992-3.268 1.273l-33.044-19.078c-.694-.4-1.121-1.141-1.121-1.942v-37.583c0-1.432 1.329-2.512 2.726-2.197 20.989 4.731 36.715 23.515 36.715 45.912.001 4.733-.702 9.303-2.008 13.615z" fill="#23c5ed"/><g fill="#ff7186"><path d="m362.343 46.224c11.115 27.801 25.864 86.552 6.627 178.171-22.699 108.107 77.494 27.427 122.108 111.785 6.448-21.94 9.921-45.152 9.921-69.179 0-97.203-56.608-181.184-138.656-220.777z"/><path d="m143.03 224.396c-19.237-91.62-4.489-150.37 6.627-178.171-82.048 39.592-138.656 123.573-138.656 220.776 0 24.027 3.473 47.24 9.921 69.179 44.614-84.357 144.807-3.678 122.108-111.784z"/></g></svg>