<?xml version="1.0" encoding="iso-8859-1"?>
<!-- Generator: Adobe Illustrator 19.0.0, SVG Export Plug-In . SVG Version: 6.00 Build 0)  -->
<svg version="1.1" id="Capa_1" xmlns="http://www.w3.org/2000/svg" xmlns:xlink="http://www.w3.org/1999/xlink" x="0px" y="0px"
	 viewBox="0 0 512 512" style="enable-background:new 0 0 512 512;" xml:space="preserve">
<circle style="fill:#FFB344;" cx="256" cy="256" r="256"/>
<path style="fill:#FF9451;" d="M512,256c0-8.33-0.412-16.563-1.19-24.69L356.5,77l-201,352.333l81.996,81.996
	C243.608,511.766,249.776,512,256,512C397.385,512,512,397.385,512,256z"/>
<rect x="155.5" y="77" style="fill:#333333;" width="201" height="352.33"/>
<rect x="255.67" y="77" style="fill:#1A1A1A;" width="100.83" height="352.33"/>
<rect x="172" y="101.5" style="fill:#008CC3;" width="168" height="282"/>
<rect x="255.67" y="101.5" style="fill:#0074A3;" width="84.33" height="282"/>
<circle style="fill:#1A1A1A;" cx="256" cy="404.5" r="12.5"/>
<path d="M256,392c-0.113,0-0.221,0.014-0.333,0.017v24.966c0.112,0.003,0.221,0.017,0.333,0.017c6.904,0,12.5-5.596,12.5-12.5
	S262.904,392,256,392z"/>
<polygon style="fill:#FFDC00;" points="255.671,153.534 277.595,197.957 326.619,205.081 291.145,239.659 299.519,288.485 
	255.671,265.433 211.822,288.485 220.197,239.659 184.723,205.081 233.746,197.957 "/>
<polygon style="fill:#FFC000;" points="255.671,265.433 299.519,288.485 291.145,239.659 326.619,205.081 277.595,197.957 
	255.671,153.534 "/>
<g>
</g>
<g>
</g>
<g>
</g>
<g>
</g>
<g>
</g>
<g>
</g>
<g>
</g>
<g>
</g>
<g>
</g>
<g>
</g>
<g>
</g>
<g>
</g>
<g>
</g>
<g>
</g>
<g>
</g>
</svg>
